G75*
%MOIN*%
%OFA0B0*%
%FSLAX24Y24*%
%IPPOS*%
%LPD*%
%AMOC8*
5,1,8,0,0,1.08239X$1,22.5*
%
%ADD10C,0.0060*%
%ADD11C,0.0160*%
%ADD12C,0.0080*%
%ADD13C,0.0020*%
%ADD14C,0.0100*%
D10*
X002317Y001580D02*
X002210Y001687D01*
X002317Y001580D02*
X002530Y001580D01*
X002637Y001687D01*
X002637Y001794D01*
X002530Y001900D01*
X002317Y001900D01*
X002210Y002007D01*
X002210Y002114D01*
X002317Y002221D01*
X002530Y002221D01*
X002637Y002114D01*
X002855Y002007D02*
X002961Y002007D01*
X002961Y001580D01*
X002855Y001580D02*
X003068Y001580D01*
X003284Y001687D02*
X003391Y001580D01*
X003711Y001580D01*
X003711Y001473D02*
X003711Y002007D01*
X003391Y002007D01*
X003284Y001900D01*
X003284Y001687D01*
X003180Y001800D02*
X003430Y002050D01*
X003930Y002050D01*
X004180Y001800D01*
X004430Y002050D01*
X004930Y002050D01*
X005180Y001800D01*
X005180Y001300D01*
X004930Y001050D01*
X004430Y001050D01*
X004180Y001300D01*
X003930Y001050D01*
X003430Y001050D01*
X003180Y001300D01*
X003180Y001800D01*
X002961Y002221D02*
X002961Y002327D01*
X003711Y001473D02*
X003605Y001366D01*
X003498Y001366D01*
X004180Y001300D02*
X004180Y001800D01*
X005210Y001687D02*
X005317Y001580D01*
X005530Y001580D01*
X005637Y001687D01*
X005637Y001900D01*
X005424Y001900D01*
X005637Y002114D02*
X005530Y002221D01*
X005317Y002221D01*
X005210Y002114D01*
X005210Y001687D01*
X005855Y001580D02*
X005855Y002007D01*
X006175Y002007D01*
X006282Y001900D01*
X006282Y001580D01*
X006499Y001687D02*
X006499Y001900D01*
X006606Y002007D01*
X006926Y002007D01*
X006926Y002221D02*
X006926Y001580D01*
X006606Y001580D01*
X006499Y001687D01*
X009210Y001721D02*
X009210Y001294D01*
X009424Y001080D01*
X009637Y001294D01*
X009637Y001721D01*
X009855Y001400D02*
X010282Y001400D01*
X010180Y001300D02*
X010180Y001800D01*
X010430Y002050D01*
X010930Y002050D01*
X011180Y001800D01*
X011430Y002050D01*
X011930Y002050D01*
X012180Y001800D01*
X012430Y002050D01*
X012930Y002050D01*
X013180Y001800D01*
X013180Y001300D01*
X012930Y001050D01*
X012430Y001050D01*
X012180Y001300D01*
X011930Y001050D01*
X011430Y001050D01*
X011180Y001300D01*
X010930Y001050D01*
X010430Y001050D01*
X010180Y001300D01*
X010068Y001187D02*
X010068Y001614D01*
X011180Y001800D02*
X011180Y001300D01*
X012180Y001300D02*
X012180Y001800D01*
X013210Y001721D02*
X013210Y001294D01*
X013424Y001080D01*
X013637Y001294D01*
X013637Y001721D01*
X013855Y001400D02*
X014282Y001400D01*
X015180Y001300D02*
X015430Y001050D01*
X015930Y001050D01*
X016180Y001300D01*
X016430Y001050D01*
X016930Y001050D01*
X017180Y001300D01*
X017430Y001050D01*
X017930Y001050D01*
X018180Y001300D01*
X018180Y001800D01*
X017930Y002050D01*
X017430Y002050D01*
X017180Y001800D01*
X017180Y001300D01*
X017180Y001800D02*
X016930Y002050D01*
X016430Y002050D01*
X016180Y001800D01*
X016180Y001300D01*
X016180Y001800D02*
X015930Y002050D01*
X015430Y002050D01*
X015180Y001800D01*
X015180Y001300D01*
X015210Y002080D02*
X015210Y002721D01*
X015530Y002721D01*
X015637Y002614D01*
X015637Y002400D01*
X015530Y002294D01*
X015210Y002294D01*
X015137Y002400D02*
X014710Y002400D01*
X014924Y002187D02*
X014924Y002614D01*
X015424Y002294D02*
X015637Y002080D01*
X015855Y002187D02*
X015855Y002400D01*
X015961Y002507D01*
X016175Y002507D01*
X016282Y002400D01*
X016282Y002294D01*
X015855Y002294D01*
X015855Y002187D02*
X015961Y002080D01*
X016175Y002080D01*
X016606Y002080D02*
X016606Y002614D01*
X016713Y002721D01*
X016710Y002721D02*
X016710Y002080D01*
X017137Y002080D01*
X017355Y002080D02*
X017782Y002080D01*
X017710Y002080D02*
X018137Y002080D01*
X018355Y002080D02*
X018782Y002507D01*
X018782Y002614D01*
X018675Y002721D01*
X018461Y002721D01*
X018355Y002614D01*
X018137Y002721D02*
X017710Y002721D01*
X017710Y002080D01*
X017568Y002080D02*
X017568Y002721D01*
X017355Y002507D01*
X017137Y002721D02*
X016710Y002721D01*
X016710Y002400D02*
X016924Y002400D01*
X016713Y002400D02*
X016499Y002400D01*
X017710Y002400D02*
X017924Y002400D01*
X018355Y002080D02*
X018782Y002080D01*
X019180Y004550D02*
X019180Y005550D01*
X015180Y005550D01*
X015180Y006150D01*
X015424Y006114D02*
X015424Y005687D01*
X015180Y005550D02*
X015180Y004550D01*
X019180Y004550D01*
X019180Y005550D02*
X019180Y007550D01*
X015180Y007550D01*
X015180Y006950D01*
X015219Y006948D01*
X015258Y006942D01*
X015296Y006933D01*
X015333Y006920D01*
X015369Y006903D01*
X015402Y006883D01*
X015434Y006859D01*
X015463Y006833D01*
X015489Y006804D01*
X015513Y006772D01*
X015533Y006739D01*
X015550Y006703D01*
X015563Y006666D01*
X015572Y006628D01*
X015578Y006589D01*
X015580Y006550D01*
X015578Y006511D01*
X015572Y006472D01*
X015563Y006434D01*
X015550Y006397D01*
X015533Y006361D01*
X015513Y006328D01*
X015489Y006296D01*
X015463Y006267D01*
X015434Y006241D01*
X015402Y006217D01*
X015369Y006197D01*
X015333Y006180D01*
X015296Y006167D01*
X015258Y006158D01*
X015219Y006152D01*
X015180Y006150D01*
X015210Y005900D02*
X015637Y005900D01*
X015180Y007550D02*
X015180Y008550D01*
X019180Y008550D01*
X019180Y007550D01*
X019253Y011580D02*
X019040Y011580D01*
X018933Y011687D01*
X019360Y012114D01*
X019360Y011687D01*
X019253Y011580D01*
X019577Y011580D02*
X019684Y011580D01*
X019684Y011687D01*
X019577Y011687D01*
X019577Y011580D01*
X019900Y011580D02*
X020327Y011580D01*
X020113Y011580D02*
X020113Y012221D01*
X019900Y012007D01*
X019360Y012114D02*
X019253Y012221D01*
X019040Y012221D01*
X018933Y012114D01*
X018933Y011687D01*
X018715Y011794D02*
X018715Y012221D01*
X018288Y012221D02*
X018288Y011794D01*
X018502Y011580D01*
X018715Y011794D01*
X017426Y011687D02*
X017426Y011900D01*
X017213Y011900D01*
X017426Y012114D02*
X017319Y012221D01*
X017106Y012221D01*
X016999Y012114D01*
X016999Y011687D01*
X017106Y011580D01*
X017319Y011580D01*
X017426Y011687D01*
X016782Y011580D02*
X016782Y012221D01*
X016568Y012007D01*
X016355Y012221D01*
X016355Y011580D01*
X016137Y011580D02*
X015710Y011580D01*
X015710Y012221D01*
X016137Y012221D01*
X015924Y011900D02*
X015710Y011900D01*
X017210Y013187D02*
X017317Y013080D01*
X017530Y013080D01*
X017637Y013187D01*
X017637Y013294D01*
X017530Y013400D01*
X017317Y013400D01*
X017210Y013507D01*
X017210Y013614D01*
X017317Y013721D01*
X017530Y013721D01*
X017637Y013614D01*
X017855Y013507D02*
X018068Y013721D01*
X018282Y013507D01*
X018282Y013080D01*
X018282Y013400D02*
X017855Y013400D01*
X017855Y013507D02*
X017855Y013080D01*
X018713Y013080D02*
X018713Y013721D01*
X018926Y013721D02*
X018499Y013721D01*
X019144Y013721D02*
X019144Y013080D01*
X019571Y013080D01*
X019788Y013187D02*
X019895Y013294D01*
X020215Y013294D01*
X020215Y013400D02*
X020215Y013080D01*
X019895Y013080D01*
X019788Y013187D01*
X019895Y013507D02*
X020108Y013507D01*
X020215Y013400D01*
X020433Y013507D02*
X020753Y013507D01*
X020860Y013400D01*
X020860Y013187D01*
X020753Y013080D01*
X020433Y013080D01*
X020433Y013721D01*
X011137Y011900D02*
X010710Y011900D01*
X010924Y011687D02*
X010924Y012114D01*
X010924Y006114D02*
X010924Y005687D01*
X010710Y005900D02*
X011137Y005900D01*
X009924Y003614D02*
X009924Y003187D01*
X009710Y003400D02*
X010137Y003400D01*
X004137Y005900D02*
X003710Y005900D01*
X003924Y005687D02*
X003924Y006114D01*
X002637Y004900D02*
X002210Y004900D01*
X002424Y004687D02*
X002424Y005114D01*
D11*
X016180Y013550D02*
X016680Y013550D01*
X017180Y013550D01*
X016680Y012550D01*
X016680Y013550D01*
X016680Y014550D01*
X016180Y013550D01*
X016258Y013706D02*
X016680Y013706D01*
X016680Y013547D02*
X017179Y013547D01*
X017099Y013389D02*
X016680Y013389D01*
X016680Y013230D02*
X017020Y013230D01*
X016941Y013072D02*
X016680Y013072D01*
X016680Y012913D02*
X016862Y012913D01*
X016782Y012755D02*
X016680Y012755D01*
X016680Y012596D02*
X016703Y012596D01*
X016680Y013864D02*
X016337Y013864D01*
X016416Y014023D02*
X016680Y014023D01*
X016680Y014181D02*
X016496Y014181D01*
X016575Y014340D02*
X016680Y014340D01*
X016680Y014498D02*
X016654Y014498D01*
D12*
X002480Y006550D02*
X002480Y004550D01*
X002180Y004550D01*
X002180Y004450D01*
X002180Y004550D02*
X001880Y004550D01*
X001880Y006550D01*
X002180Y006550D01*
X002180Y006650D01*
X002180Y006550D02*
X002480Y006550D01*
X001480Y006550D02*
X001480Y004550D01*
X001180Y004550D01*
X001180Y004450D01*
X001180Y004550D02*
X000880Y004550D01*
X000880Y006550D01*
X001180Y006550D01*
X001180Y006650D01*
X001180Y006550D02*
X001480Y006550D01*
X001430Y006300D02*
X000930Y006300D01*
X001930Y004800D02*
X002430Y004800D01*
D13*
X002310Y005034D02*
X002310Y005181D01*
X002310Y005107D02*
X002090Y005107D01*
X002163Y005034D01*
X002090Y005255D02*
X002310Y005402D01*
X002090Y005402D01*
X002200Y005476D02*
X002200Y005623D01*
X002163Y005697D02*
X002090Y005770D01*
X002310Y005770D01*
X002310Y005697D02*
X002310Y005844D01*
X002200Y005918D02*
X002200Y006065D01*
X002237Y006139D02*
X002200Y006176D01*
X002200Y006249D01*
X002237Y006286D01*
X002273Y006286D01*
X002310Y006249D01*
X002310Y006176D01*
X002273Y006139D01*
X002237Y006139D01*
X002200Y006176D02*
X002163Y006139D01*
X002127Y006139D01*
X002090Y006176D01*
X002090Y006249D01*
X002127Y006286D01*
X002163Y006286D01*
X002200Y006249D01*
X002310Y006028D02*
X002090Y006028D01*
X002200Y005918D01*
X002310Y005586D02*
X002090Y005586D01*
X002200Y005476D01*
X002310Y005255D02*
X002090Y005255D01*
X001270Y005312D02*
X001050Y005312D01*
X001160Y005202D01*
X001160Y005349D01*
X001123Y005423D02*
X001050Y005496D01*
X001270Y005496D01*
X001270Y005423D02*
X001270Y005570D01*
X001160Y005644D02*
X001160Y005791D01*
X001197Y005865D02*
X001160Y005902D01*
X001160Y005975D01*
X001197Y006012D01*
X001233Y006012D01*
X001270Y005975D01*
X001270Y005902D01*
X001233Y005865D01*
X001197Y005865D01*
X001160Y005902D02*
X001123Y005865D01*
X001087Y005865D01*
X001050Y005902D01*
X001050Y005975D01*
X001087Y006012D01*
X001123Y006012D01*
X001160Y005975D01*
X001270Y005754D02*
X001050Y005754D01*
X001160Y005644D01*
X001270Y005128D02*
X001050Y005128D01*
X001050Y004981D02*
X001270Y005128D01*
X001270Y004981D02*
X001050Y004981D01*
X001050Y004833D02*
X001270Y004833D01*
X001270Y004760D02*
X001270Y004907D01*
X001123Y004760D02*
X001050Y004833D01*
D14*
X008109Y010361D02*
X008345Y010361D01*
X008109Y010361D02*
X008109Y011207D01*
X009015Y010361D02*
X009251Y010361D01*
X009251Y011207D01*
M02*
