%
M48
M72
T01C0.0236
T02C0.0240
T03C0.0320
T04C0.0354
T05C0.0400
%
T01
X4680Y3550
X6680Y5050
X5180Y6050
X4180Y6050
X2680Y5550
X4180Y8550
X8180Y9550
X10180Y10050
X10680Y8050
X13680Y8050
X13680Y9550
X11180Y12050
X10180Y13050
X9180Y12550
X9680Y12050
X7680Y12550
X12680Y4050
X13680Y3050
X14680Y1050
X9680Y2050
X8180Y3050
T02
X8180Y8550
X5180Y8550
X4680Y10050
X4680Y12050
T03
X15680Y8050
X16680Y8050
X17680Y8050
X18680Y8050
X18680Y5050
X17680Y5050
X16680Y5050
X15680Y5050
T04
X2180Y4050
X1180Y4050
X1180Y7050
X2180Y7050
T05
X3680Y1550
X4680Y1550
X10680Y1550
X11680Y1550
X12680Y1550
X15680Y1550
X16680Y1550
X17680Y1550
M30
