G75*
%MOIN*%
%OFA0B0*%
%FSLAX24Y24*%
%IPPOS*%
%LPD*%
%AMOC8*
5,1,8,0,0,1.08239X$1,22.5*
%
%ADD10OC8,0.0630*%
%ADD11C,0.0594*%
%ADD12C,0.0640*%
%ADD13C,0.0160*%
%ADD14C,0.0100*%
%ADD15C,0.0440*%
%ADD16C,0.0436*%
D10*
X015680Y005050D03*
X016680Y005050D03*
X017680Y005050D03*
X018680Y005050D03*
X018680Y008050D03*
X017680Y008050D03*
X016680Y008050D03*
X015680Y008050D03*
D11*
X002180Y007050D03*
X001180Y007050D03*
X001180Y004050D03*
X002180Y004050D03*
D12*
X003680Y001870D02*
X003680Y001230D01*
X004680Y001230D02*
X004680Y001870D01*
X010680Y001870D02*
X010680Y001230D01*
X011680Y001230D02*
X011680Y001870D01*
X012680Y001870D02*
X012680Y001230D01*
X015680Y001230D02*
X015680Y001870D01*
X016680Y001870D02*
X016680Y001230D01*
X017680Y001230D02*
X017680Y001870D01*
D13*
X000460Y000830D02*
X000460Y014770D01*
X019900Y014770D01*
X019900Y000830D01*
X018015Y000830D01*
X018121Y000935D01*
X018200Y001127D01*
X018200Y001973D01*
X018121Y002165D01*
X017975Y002311D01*
X017783Y002390D01*
X017577Y002390D01*
X017385Y002311D01*
X017239Y002165D01*
X017180Y002022D01*
X017121Y002165D01*
X016975Y002311D01*
X016783Y002390D01*
X016577Y002390D01*
X016385Y002311D01*
X016239Y002165D01*
X016167Y001990D01*
X016143Y002062D01*
X016108Y002132D01*
X016061Y002196D01*
X016006Y002251D01*
X015942Y002298D01*
X015872Y002333D01*
X015797Y002358D01*
X015719Y002370D01*
X015700Y002370D01*
X015700Y001570D01*
X015660Y001570D01*
X015660Y002370D01*
X015641Y002370D01*
X015563Y002358D01*
X015488Y002333D01*
X015418Y002298D01*
X015354Y002251D01*
X015299Y002196D01*
X015252Y002132D01*
X015217Y002062D01*
X015192Y001987D01*
X015180Y001909D01*
X015180Y001570D01*
X015660Y001570D01*
X015660Y001530D01*
X015180Y001530D01*
X015180Y001191D01*
X015192Y001113D01*
X015217Y001038D01*
X015252Y000968D01*
X015299Y000904D01*
X015354Y000849D01*
X015380Y000830D01*
X015041Y000830D01*
X015098Y000967D01*
X015098Y001133D01*
X015034Y001287D01*
X014917Y001404D01*
X014763Y001468D01*
X014597Y001468D01*
X014443Y001404D01*
X014326Y001287D01*
X014262Y001133D01*
X014262Y000967D01*
X014319Y000830D01*
X013015Y000830D01*
X013121Y000935D01*
X013200Y001127D01*
X013200Y001973D01*
X013121Y002165D01*
X012975Y002311D01*
X012960Y002317D01*
X012960Y002770D01*
X013369Y002770D01*
X013443Y002696D01*
X013597Y002632D01*
X013763Y002632D01*
X013917Y002696D01*
X014034Y002813D01*
X014098Y002967D01*
X014098Y003133D01*
X014034Y003287D01*
X013917Y003404D01*
X013763Y003468D01*
X013597Y003468D01*
X013443Y003404D01*
X013369Y003330D01*
X012960Y003330D01*
X012960Y003739D01*
X013021Y003800D01*
X017730Y003800D01*
X017822Y003838D01*
X018519Y004535D01*
X018893Y004535D01*
X019195Y004837D01*
X019195Y005263D01*
X018893Y005565D01*
X018467Y005565D01*
X018180Y005278D01*
X017893Y005565D01*
X017467Y005565D01*
X017180Y005278D01*
X016893Y005565D01*
X016467Y005565D01*
X016180Y005278D01*
X015893Y005565D01*
X015467Y005565D01*
X015165Y005263D01*
X015165Y004837D01*
X015467Y004535D01*
X015893Y004535D01*
X016180Y004822D01*
X016467Y004535D01*
X016893Y004535D01*
X017180Y004822D01*
X017467Y004535D01*
X017811Y004535D01*
X017576Y004300D01*
X013021Y004300D01*
X012917Y004404D01*
X012763Y004468D01*
X012597Y004468D01*
X012443Y004404D01*
X012326Y004287D01*
X012262Y004133D01*
X012262Y003967D01*
X012326Y003813D01*
X012400Y003739D01*
X012400Y002317D01*
X012385Y002311D01*
X012239Y002165D01*
X012167Y001990D01*
X012143Y002062D01*
X012108Y002132D01*
X012061Y002196D01*
X012006Y002251D01*
X011942Y002298D01*
X011872Y002333D01*
X011797Y002358D01*
X011719Y002370D01*
X011700Y002370D01*
X011700Y001570D01*
X011660Y001570D01*
X011660Y002370D01*
X011641Y002370D01*
X011563Y002358D01*
X011488Y002333D01*
X011418Y002298D01*
X011354Y002251D01*
X011299Y002196D01*
X011252Y002132D01*
X011217Y002062D01*
X011193Y001990D01*
X011121Y002165D01*
X010975Y002311D01*
X010930Y002329D01*
X010930Y007300D01*
X016230Y007300D01*
X016322Y007338D01*
X016519Y007535D01*
X016893Y007535D01*
X017180Y007822D01*
X017467Y007535D01*
X017893Y007535D01*
X018180Y007822D01*
X018467Y007535D01*
X018893Y007535D01*
X019195Y007837D01*
X019195Y008263D01*
X018893Y008565D01*
X018467Y008565D01*
X018180Y008278D01*
X017893Y008565D01*
X017467Y008565D01*
X017180Y008278D01*
X016893Y008565D01*
X016467Y008565D01*
X016180Y008278D01*
X015893Y008565D01*
X015467Y008565D01*
X015165Y008263D01*
X015165Y007837D01*
X015202Y007800D01*
X014021Y007800D01*
X014034Y007813D01*
X014098Y007967D01*
X014098Y008133D01*
X014034Y008287D01*
X013960Y008361D01*
X013960Y009239D01*
X014034Y009313D01*
X014098Y009467D01*
X014098Y009633D01*
X014034Y009787D01*
X013917Y009904D01*
X013763Y009968D01*
X013597Y009968D01*
X013443Y009904D01*
X013326Y009787D01*
X013262Y009633D01*
X013262Y009467D01*
X013326Y009313D01*
X013400Y009239D01*
X013400Y008361D01*
X013326Y008287D01*
X013262Y008133D01*
X013262Y007967D01*
X013326Y007813D01*
X013339Y007800D01*
X011930Y007800D01*
X011930Y012509D01*
X011933Y012518D01*
X011930Y012559D01*
X011930Y012600D01*
X011926Y012608D01*
X011926Y012617D01*
X011908Y012654D01*
X011892Y012692D01*
X011885Y012698D01*
X011881Y012706D01*
X011851Y012733D01*
X011822Y012762D01*
X011813Y012765D01*
X011806Y012771D01*
X011767Y012784D01*
X011730Y012800D01*
X011721Y012800D01*
X010578Y013181D01*
X010534Y013287D01*
X010417Y013404D01*
X010263Y013468D01*
X010097Y013468D01*
X009943Y013404D01*
X009894Y013355D01*
X004247Y013825D01*
X004236Y013830D01*
X004192Y013830D01*
X004148Y013834D01*
X004136Y013830D01*
X004124Y013830D01*
X004084Y013813D01*
X004042Y013800D01*
X004032Y013792D01*
X004021Y013787D01*
X003990Y013756D01*
X003957Y013728D01*
X003951Y013717D01*
X003943Y013709D01*
X003926Y013668D01*
X003906Y013629D01*
X003905Y013617D01*
X003900Y013606D01*
X003900Y013562D01*
X003896Y013518D01*
X003900Y013506D01*
X003900Y008861D01*
X003826Y008787D01*
X003762Y008633D01*
X003762Y008467D01*
X003826Y008313D01*
X003839Y008300D01*
X001630Y008300D01*
X001538Y008262D01*
X001038Y007762D01*
X000968Y007692D01*
X000930Y007600D01*
X000930Y007485D01*
X000898Y007471D01*
X000759Y007332D01*
X000683Y007149D01*
X000683Y006951D01*
X000759Y006768D01*
X000898Y006629D01*
X001081Y006553D01*
X001279Y006553D01*
X001462Y006629D01*
X001601Y006768D01*
X001677Y006951D01*
X001677Y007149D01*
X001601Y007332D01*
X001462Y007471D01*
X001457Y007473D01*
X001784Y007800D01*
X005230Y007800D01*
X005322Y007838D01*
X005392Y007908D01*
X005430Y008000D01*
X005430Y008206D01*
X005536Y008312D01*
X005600Y008466D01*
X005600Y008634D01*
X005536Y008788D01*
X005418Y008906D01*
X005264Y008970D01*
X005096Y008970D01*
X004942Y008906D01*
X004824Y008788D01*
X004760Y008634D01*
X004760Y008466D01*
X004824Y008312D01*
X004836Y008300D01*
X004521Y008300D01*
X004534Y008313D01*
X004598Y008467D01*
X004598Y008633D01*
X004534Y008787D01*
X004460Y008861D01*
X004460Y009687D01*
X004596Y009630D01*
X004764Y009630D01*
X004918Y009694D01*
X005036Y009812D01*
X005100Y009966D01*
X005100Y010134D01*
X005036Y010288D01*
X004930Y010394D01*
X004930Y011706D01*
X005036Y011812D01*
X005100Y011966D01*
X005100Y012134D01*
X005036Y012288D01*
X004918Y012406D01*
X004764Y012470D01*
X004596Y012470D01*
X004460Y012413D01*
X004460Y013246D01*
X008913Y012875D01*
X008869Y012830D01*
X007991Y012830D01*
X007917Y012904D01*
X007763Y012968D01*
X007597Y012968D01*
X007443Y012904D01*
X007326Y012787D01*
X007262Y012633D01*
X007262Y012467D01*
X007326Y012313D01*
X007443Y012196D01*
X007597Y012132D01*
X007763Y012132D01*
X007917Y012196D01*
X007991Y012270D01*
X008869Y012270D01*
X008943Y012196D01*
X009097Y012132D01*
X009262Y012132D01*
X009262Y011967D01*
X009326Y011813D01*
X009443Y011696D01*
X009597Y011632D01*
X009763Y011632D01*
X009917Y011696D01*
X009991Y011770D01*
X010869Y011770D01*
X010943Y011696D01*
X011097Y011632D01*
X011263Y011632D01*
X011417Y011696D01*
X011430Y011709D01*
X011430Y007800D01*
X011021Y007800D01*
X011034Y007813D01*
X011098Y007967D01*
X011098Y008133D01*
X011034Y008287D01*
X010917Y008404D01*
X010763Y008468D01*
X010597Y008468D01*
X010443Y008404D01*
X010326Y008287D01*
X010262Y008133D01*
X010262Y007967D01*
X010326Y007813D01*
X010400Y007739D01*
X010400Y007494D01*
X010430Y007422D01*
X010430Y002329D01*
X010385Y002311D01*
X010239Y002165D01*
X010211Y002097D01*
X010087Y002159D01*
X010034Y002287D01*
X009917Y002404D01*
X009763Y002468D01*
X009597Y002468D01*
X009443Y002404D01*
X009326Y002287D01*
X009262Y002133D01*
X009262Y001967D01*
X009326Y001813D01*
X009443Y001696D01*
X009597Y001632D01*
X009763Y001632D01*
X009833Y001661D01*
X010160Y001497D01*
X010160Y001127D01*
X010239Y000935D01*
X010345Y000830D01*
X004980Y000830D01*
X005006Y000849D01*
X005061Y000904D01*
X005108Y000968D01*
X005143Y001038D01*
X005168Y001113D01*
X005180Y001191D01*
X005180Y001530D01*
X004700Y001530D01*
X004700Y001570D01*
X004660Y001570D01*
X004660Y002370D01*
X004641Y002370D01*
X004563Y002358D01*
X004488Y002333D01*
X004418Y002298D01*
X004354Y002251D01*
X004299Y002196D01*
X004252Y002132D01*
X004217Y002062D01*
X004193Y001990D01*
X004121Y002165D01*
X003975Y002311D01*
X003783Y002390D01*
X003577Y002390D01*
X003385Y002311D01*
X003239Y002165D01*
X003160Y001973D01*
X003160Y001127D01*
X003239Y000935D01*
X003345Y000830D01*
X000460Y000830D01*
X000460Y000867D02*
X003308Y000867D01*
X003202Y001026D02*
X000460Y001026D01*
X000460Y001184D02*
X003160Y001184D01*
X003160Y001343D02*
X000460Y001343D01*
X000460Y001501D02*
X003160Y001501D01*
X003160Y001660D02*
X000460Y001660D01*
X000460Y001818D02*
X003160Y001818D01*
X003161Y001977D02*
X000460Y001977D01*
X000460Y002135D02*
X003227Y002135D01*
X003368Y002294D02*
X000460Y002294D01*
X000460Y002452D02*
X009558Y002452D01*
X009332Y002294D02*
X004948Y002294D01*
X004942Y002298D02*
X004872Y002333D01*
X004797Y002358D01*
X004719Y002370D01*
X004700Y002370D01*
X004700Y001570D01*
X005180Y001570D01*
X005180Y001909D01*
X005168Y001987D01*
X005143Y002062D01*
X005108Y002132D01*
X005061Y002196D01*
X005006Y002251D01*
X004942Y002298D01*
X005105Y002135D02*
X009263Y002135D01*
X009262Y001977D02*
X005169Y001977D01*
X005180Y001818D02*
X009324Y001818D01*
X009530Y001660D02*
X005180Y001660D01*
X005180Y001501D02*
X010152Y001501D01*
X010160Y001343D02*
X005180Y001343D01*
X005179Y001184D02*
X010160Y001184D01*
X010202Y001026D02*
X005137Y001026D01*
X005024Y000867D02*
X010308Y000867D01*
X010680Y001550D02*
X009680Y002050D01*
X010028Y002294D02*
X010368Y002294D01*
X010430Y002452D02*
X009802Y002452D01*
X010136Y002135D02*
X010227Y002135D01*
X010430Y002611D02*
X000460Y002611D01*
X000460Y002769D02*
X007870Y002769D01*
X007826Y002813D02*
X007943Y002696D01*
X008097Y002632D01*
X008263Y002632D01*
X008417Y002696D01*
X008534Y002813D01*
X008598Y002967D01*
X008598Y003133D01*
X008534Y003287D01*
X008417Y003404D01*
X008263Y003468D01*
X008097Y003468D01*
X007943Y003404D01*
X007826Y003287D01*
X007762Y003133D01*
X007762Y002967D01*
X007826Y002813D01*
X007778Y002928D02*
X000460Y002928D01*
X000460Y003086D02*
X007762Y003086D01*
X007808Y003245D02*
X004966Y003245D01*
X004917Y003196D02*
X005034Y003313D01*
X005098Y003467D01*
X005098Y003514D01*
X006592Y004634D01*
X006597Y004632D01*
X006763Y004632D01*
X006917Y004696D01*
X007034Y004813D01*
X007098Y004967D01*
X007098Y005133D01*
X007034Y005287D01*
X006917Y005404D01*
X006763Y005468D01*
X006597Y005468D01*
X006443Y005404D01*
X006326Y005287D01*
X006262Y005133D01*
X006262Y005086D01*
X004768Y003966D01*
X004763Y003968D01*
X004597Y003968D01*
X004443Y003904D01*
X004326Y003787D01*
X004262Y003633D01*
X004262Y003467D01*
X004326Y003313D01*
X004443Y003196D01*
X004597Y003132D01*
X004763Y003132D01*
X004917Y003196D01*
X005072Y003403D02*
X007942Y003403D01*
X008418Y003403D02*
X010430Y003403D01*
X010430Y003245D02*
X008552Y003245D01*
X008598Y003086D02*
X010430Y003086D01*
X010430Y002928D02*
X008582Y002928D01*
X008490Y002769D02*
X010430Y002769D01*
X010930Y002769D02*
X012400Y002769D01*
X012400Y002611D02*
X010930Y002611D01*
X010930Y002452D02*
X012400Y002452D01*
X012368Y002294D02*
X011948Y002294D01*
X012105Y002135D02*
X012227Y002135D01*
X011700Y002135D02*
X011660Y002135D01*
X011660Y002294D02*
X011700Y002294D01*
X011412Y002294D02*
X010992Y002294D01*
X011133Y002135D02*
X011255Y002135D01*
X011660Y001977D02*
X011700Y001977D01*
X011700Y001818D02*
X011660Y001818D01*
X011660Y001660D02*
X011700Y001660D01*
X012680Y001550D02*
X012680Y003050D01*
X013680Y003050D01*
X013990Y002769D02*
X019900Y002769D01*
X019900Y002611D02*
X012960Y002611D01*
X012960Y002769D02*
X013370Y002769D01*
X012960Y002452D02*
X019900Y002452D01*
X019900Y002294D02*
X017992Y002294D01*
X018133Y002135D02*
X019900Y002135D01*
X019900Y001977D02*
X018199Y001977D01*
X018200Y001818D02*
X019900Y001818D01*
X019900Y001660D02*
X018200Y001660D01*
X018200Y001501D02*
X019900Y001501D01*
X019900Y001343D02*
X018200Y001343D01*
X018200Y001184D02*
X019900Y001184D01*
X019900Y001026D02*
X018158Y001026D01*
X018052Y000867D02*
X019900Y000867D01*
X017368Y002294D02*
X016992Y002294D01*
X017133Y002135D02*
X017227Y002135D01*
X016368Y002294D02*
X015948Y002294D01*
X016105Y002135D02*
X016227Y002135D01*
X015700Y002135D02*
X015660Y002135D01*
X015660Y002294D02*
X015700Y002294D01*
X015412Y002294D02*
X012992Y002294D01*
X013133Y002135D02*
X015255Y002135D01*
X015191Y001977D02*
X013199Y001977D01*
X013200Y001818D02*
X015180Y001818D01*
X015180Y001660D02*
X013200Y001660D01*
X013200Y001501D02*
X015180Y001501D01*
X015180Y001343D02*
X014979Y001343D01*
X015077Y001184D02*
X015181Y001184D01*
X015223Y001026D02*
X015098Y001026D01*
X015057Y000867D02*
X015336Y000867D01*
X015660Y001660D02*
X015700Y001660D01*
X015700Y001818D02*
X015660Y001818D01*
X015660Y001977D02*
X015700Y001977D01*
X014381Y001343D02*
X013200Y001343D01*
X013200Y001184D02*
X014283Y001184D01*
X014262Y001026D02*
X013158Y001026D01*
X013052Y000867D02*
X014303Y000867D01*
X014082Y002928D02*
X019900Y002928D01*
X019900Y003086D02*
X014098Y003086D01*
X014052Y003245D02*
X019900Y003245D01*
X019900Y003403D02*
X013918Y003403D01*
X013442Y003403D02*
X012960Y003403D01*
X012960Y003562D02*
X019900Y003562D01*
X019900Y003720D02*
X012960Y003720D01*
X012680Y004050D02*
X012680Y003050D01*
X012400Y003086D02*
X010930Y003086D01*
X010930Y002928D02*
X012400Y002928D01*
X012400Y003245D02*
X010930Y003245D01*
X010930Y003403D02*
X012400Y003403D01*
X012400Y003562D02*
X010930Y003562D01*
X010930Y003720D02*
X012400Y003720D01*
X012298Y003879D02*
X010930Y003879D01*
X010930Y004037D02*
X012262Y004037D01*
X012288Y004196D02*
X010930Y004196D01*
X010930Y004354D02*
X012393Y004354D01*
X012967Y004354D02*
X017630Y004354D01*
X017789Y004513D02*
X010930Y004513D01*
X010930Y004671D02*
X015331Y004671D01*
X015172Y004830D02*
X010930Y004830D01*
X010930Y004988D02*
X015165Y004988D01*
X015165Y005147D02*
X010930Y005147D01*
X010930Y005305D02*
X015207Y005305D01*
X015365Y005464D02*
X010930Y005464D01*
X010930Y005622D02*
X019900Y005622D01*
X019900Y005464D02*
X018995Y005464D01*
X019153Y005305D02*
X019900Y005305D01*
X019900Y005147D02*
X019195Y005147D01*
X019195Y004988D02*
X019900Y004988D01*
X019900Y004830D02*
X019188Y004830D01*
X019029Y004671D02*
X019900Y004671D01*
X019900Y004513D02*
X018496Y004513D01*
X018338Y004354D02*
X019900Y004354D01*
X019900Y004196D02*
X018179Y004196D01*
X018021Y004037D02*
X019900Y004037D01*
X019900Y003879D02*
X017862Y003879D01*
X017331Y004671D02*
X017029Y004671D01*
X016331Y004671D02*
X016029Y004671D01*
X016153Y005305D02*
X016207Y005305D01*
X016365Y005464D02*
X015995Y005464D01*
X016995Y005464D02*
X017365Y005464D01*
X017207Y005305D02*
X017153Y005305D01*
X017995Y005464D02*
X018365Y005464D01*
X018207Y005305D02*
X018153Y005305D01*
X019900Y005781D02*
X010930Y005781D01*
X010930Y005939D02*
X019900Y005939D01*
X019900Y006098D02*
X010930Y006098D01*
X010930Y006256D02*
X019900Y006256D01*
X019900Y006415D02*
X010930Y006415D01*
X010930Y006573D02*
X019900Y006573D01*
X019900Y006732D02*
X010930Y006732D01*
X010930Y006890D02*
X019900Y006890D01*
X019900Y007049D02*
X010930Y007049D01*
X010930Y007207D02*
X019900Y007207D01*
X019900Y007366D02*
X016349Y007366D01*
X016508Y007524D02*
X019900Y007524D01*
X019900Y007683D02*
X019041Y007683D01*
X019195Y007841D02*
X019900Y007841D01*
X019900Y008000D02*
X019195Y008000D01*
X019195Y008158D02*
X019900Y008158D01*
X019900Y008317D02*
X019142Y008317D01*
X018983Y008475D02*
X019900Y008475D01*
X019900Y008634D02*
X013960Y008634D01*
X013960Y008792D02*
X019900Y008792D01*
X019900Y008951D02*
X013960Y008951D01*
X013960Y009109D02*
X019900Y009109D01*
X019900Y009268D02*
X013989Y009268D01*
X014081Y009426D02*
X019900Y009426D01*
X019900Y009585D02*
X014098Y009585D01*
X014053Y009743D02*
X019900Y009743D01*
X019900Y009902D02*
X013920Y009902D01*
X013440Y009902D02*
X011930Y009902D01*
X011930Y010060D02*
X019900Y010060D01*
X019900Y010219D02*
X011930Y010219D01*
X011930Y010377D02*
X019900Y010377D01*
X019900Y010536D02*
X011930Y010536D01*
X011930Y010694D02*
X019900Y010694D01*
X019900Y010853D02*
X011930Y010853D01*
X011930Y011011D02*
X019900Y011011D01*
X019900Y011170D02*
X011930Y011170D01*
X011930Y011328D02*
X019900Y011328D01*
X019900Y011487D02*
X011930Y011487D01*
X011930Y011645D02*
X019900Y011645D01*
X019900Y011804D02*
X011930Y011804D01*
X011930Y011962D02*
X019900Y011962D01*
X019900Y012121D02*
X011930Y012121D01*
X011930Y012279D02*
X019900Y012279D01*
X019900Y012438D02*
X011930Y012438D01*
X011930Y012596D02*
X019900Y012596D01*
X019900Y012755D02*
X011829Y012755D01*
X011382Y012913D02*
X019900Y012913D01*
X019900Y013072D02*
X010906Y013072D01*
X010558Y013230D02*
X019900Y013230D01*
X019900Y013389D02*
X010433Y013389D01*
X010180Y013050D02*
X004180Y013550D01*
X004180Y008550D01*
X004598Y008475D02*
X004760Y008475D01*
X004760Y008634D02*
X004598Y008634D01*
X004529Y008792D02*
X004828Y008792D01*
X005049Y008951D02*
X004460Y008951D01*
X004460Y009109D02*
X011430Y009109D01*
X011430Y008951D02*
X008311Y008951D01*
X008264Y008970D02*
X008096Y008970D01*
X007942Y008906D01*
X007824Y008788D01*
X007760Y008634D01*
X007760Y008484D01*
X006576Y007300D01*
X004815Y007300D01*
X004716Y007333D01*
X004605Y007325D01*
X004554Y007300D01*
X002615Y007300D01*
X002601Y007332D01*
X002462Y007471D01*
X002279Y007547D01*
X002081Y007547D01*
X001898Y007471D01*
X001759Y007332D01*
X001683Y007149D01*
X001683Y006951D01*
X001759Y006768D01*
X001898Y006629D01*
X002081Y006553D01*
X002279Y006553D01*
X002462Y006629D01*
X002601Y006768D01*
X002615Y006800D01*
X004492Y006800D01*
X004791Y006203D01*
X004762Y006133D01*
X004762Y005967D01*
X004826Y005813D01*
X004943Y005696D01*
X005097Y005632D01*
X005263Y005632D01*
X005417Y005696D01*
X005534Y005813D01*
X005598Y005967D01*
X005598Y006133D01*
X005534Y006287D01*
X005417Y006404D01*
X005289Y006457D01*
X005118Y006800D01*
X006730Y006800D01*
X006822Y006838D01*
X008114Y008130D01*
X008264Y008130D01*
X008418Y008194D01*
X008536Y008312D01*
X008600Y008466D01*
X008600Y008634D01*
X008536Y008788D01*
X008418Y008906D01*
X008264Y008970D01*
X008263Y009132D02*
X008097Y009132D01*
X007943Y009196D01*
X007826Y009313D01*
X007762Y009467D01*
X007762Y009633D01*
X007826Y009787D01*
X007943Y009904D01*
X008097Y009968D01*
X008263Y009968D01*
X008417Y009904D01*
X008422Y009899D01*
X009809Y010246D01*
X009826Y010287D01*
X009943Y010404D01*
X010097Y010468D01*
X010263Y010468D01*
X010417Y010404D01*
X010534Y010287D01*
X010598Y010133D01*
X010598Y009967D01*
X010534Y009813D01*
X010417Y009696D01*
X010263Y009632D01*
X010097Y009632D01*
X009943Y009696D01*
X009938Y009701D01*
X008551Y009354D01*
X008534Y009313D01*
X008417Y009196D01*
X008263Y009132D01*
X008489Y009268D02*
X011430Y009268D01*
X011430Y009426D02*
X008839Y009426D01*
X009473Y009585D02*
X011430Y009585D01*
X011430Y009743D02*
X010464Y009743D01*
X010571Y009902D02*
X011430Y009902D01*
X011430Y010060D02*
X010598Y010060D01*
X010563Y010219D02*
X011430Y010219D01*
X011430Y010377D02*
X010444Y010377D01*
X010180Y010050D02*
X008180Y009550D01*
X007871Y009268D02*
X004460Y009268D01*
X004460Y009426D02*
X007779Y009426D01*
X007762Y009585D02*
X004460Y009585D01*
X003900Y009585D02*
X000460Y009585D01*
X000460Y009743D02*
X003900Y009743D01*
X003900Y009902D02*
X000460Y009902D01*
X000460Y010060D02*
X003900Y010060D01*
X003900Y010219D02*
X000460Y010219D01*
X000460Y010377D02*
X003900Y010377D01*
X003900Y010536D02*
X000460Y010536D01*
X000460Y010694D02*
X003900Y010694D01*
X003900Y010853D02*
X000460Y010853D01*
X000460Y011011D02*
X003900Y011011D01*
X003900Y011170D02*
X000460Y011170D01*
X000460Y011328D02*
X003900Y011328D01*
X003900Y011487D02*
X000460Y011487D01*
X000460Y011645D02*
X003900Y011645D01*
X003900Y011804D02*
X000460Y011804D01*
X000460Y011962D02*
X003900Y011962D01*
X003900Y012121D02*
X000460Y012121D01*
X000460Y012279D02*
X003900Y012279D01*
X003900Y012438D02*
X000460Y012438D01*
X000460Y012596D02*
X003900Y012596D01*
X003900Y012755D02*
X000460Y012755D01*
X000460Y012913D02*
X003900Y012913D01*
X003900Y013072D02*
X000460Y013072D01*
X000460Y013230D02*
X003900Y013230D01*
X003900Y013389D02*
X000460Y013389D01*
X000460Y013547D02*
X003899Y013547D01*
X003941Y013706D02*
X000460Y013706D01*
X000460Y013864D02*
X019900Y013864D01*
X019900Y014023D02*
X000460Y014023D01*
X000460Y014181D02*
X019900Y014181D01*
X019900Y014340D02*
X000460Y014340D01*
X000460Y014498D02*
X019900Y014498D01*
X019900Y014657D02*
X000460Y014657D01*
X004460Y013230D02*
X004648Y013230D01*
X004460Y013072D02*
X006550Y013072D01*
X007312Y012755D02*
X004460Y012755D01*
X004460Y012913D02*
X007464Y012913D01*
X007262Y012596D02*
X004460Y012596D01*
X004460Y012438D02*
X004518Y012438D01*
X004842Y012438D02*
X007274Y012438D01*
X007360Y012279D02*
X005040Y012279D01*
X005100Y012121D02*
X009262Y012121D01*
X009264Y011962D02*
X005098Y011962D01*
X005027Y011804D02*
X009335Y011804D01*
X009565Y011645D02*
X004930Y011645D01*
X004930Y011487D02*
X011430Y011487D01*
X011430Y011645D02*
X011295Y011645D01*
X011065Y011645D02*
X009795Y011645D01*
X009680Y012050D02*
X011180Y012050D01*
X011430Y011328D02*
X004930Y011328D01*
X004930Y011170D02*
X011430Y011170D01*
X011430Y011011D02*
X004930Y011011D01*
X004930Y010853D02*
X011430Y010853D01*
X011430Y010694D02*
X004930Y010694D01*
X004930Y010536D02*
X011430Y010536D01*
X011930Y009743D02*
X013307Y009743D01*
X013262Y009585D02*
X011930Y009585D01*
X011930Y009426D02*
X013279Y009426D01*
X013371Y009268D02*
X011930Y009268D01*
X011930Y009109D02*
X013400Y009109D01*
X013400Y008951D02*
X011930Y008951D01*
X011930Y008792D02*
X013400Y008792D01*
X013400Y008634D02*
X011930Y008634D01*
X011930Y008475D02*
X013400Y008475D01*
X013355Y008317D02*
X011930Y008317D01*
X011930Y008158D02*
X013272Y008158D01*
X013262Y008000D02*
X011930Y008000D01*
X011930Y007841D02*
X013314Y007841D01*
X013680Y008050D02*
X013680Y009550D01*
X013960Y008475D02*
X015377Y008475D01*
X015218Y008317D02*
X014005Y008317D01*
X014088Y008158D02*
X015165Y008158D01*
X015165Y008000D02*
X014098Y008000D01*
X014046Y007841D02*
X015165Y007841D01*
X015983Y008475D02*
X016377Y008475D01*
X016218Y008317D02*
X016142Y008317D01*
X016983Y008475D02*
X017377Y008475D01*
X017218Y008317D02*
X017142Y008317D01*
X017041Y007683D02*
X017319Y007683D01*
X018041Y007683D02*
X018319Y007683D01*
X018218Y008317D02*
X018142Y008317D01*
X017983Y008475D02*
X018377Y008475D01*
X019900Y013547D02*
X007587Y013547D01*
X007896Y012913D02*
X008452Y012913D01*
X009180Y012550D02*
X007680Y012550D01*
X009489Y013389D02*
X009927Y013389D01*
X009916Y010377D02*
X004947Y010377D01*
X005065Y010219D02*
X009700Y010219D01*
X009066Y010060D02*
X005100Y010060D01*
X005073Y009902D02*
X007940Y009902D01*
X007807Y009743D02*
X004967Y009743D01*
X005311Y008951D02*
X008049Y008951D01*
X007828Y008792D02*
X005532Y008792D01*
X005600Y008634D02*
X007760Y008634D01*
X007751Y008475D02*
X005600Y008475D01*
X005538Y008317D02*
X007593Y008317D01*
X007434Y008158D02*
X005430Y008158D01*
X005430Y008000D02*
X007276Y008000D01*
X007117Y007841D02*
X005325Y007841D01*
X004822Y008317D02*
X004536Y008317D01*
X003824Y008317D02*
X000460Y008317D01*
X000460Y008475D02*
X003762Y008475D01*
X003762Y008634D02*
X000460Y008634D01*
X000460Y008792D02*
X003831Y008792D01*
X003900Y008951D02*
X000460Y008951D01*
X000460Y009109D02*
X003900Y009109D01*
X003900Y009268D02*
X000460Y009268D01*
X000460Y009426D02*
X003900Y009426D01*
X001666Y007683D02*
X006959Y007683D01*
X006800Y007524D02*
X002335Y007524D01*
X002568Y007366D02*
X006642Y007366D01*
X007032Y007049D02*
X010430Y007049D01*
X010430Y007207D02*
X007191Y007207D01*
X007349Y007366D02*
X010430Y007366D01*
X010400Y007524D02*
X007508Y007524D01*
X007666Y007683D02*
X010400Y007683D01*
X010314Y007841D02*
X007825Y007841D01*
X007983Y008000D02*
X010262Y008000D01*
X010272Y008158D02*
X008331Y008158D01*
X008538Y008317D02*
X010355Y008317D01*
X010680Y008050D02*
X010680Y007550D01*
X011046Y007841D02*
X011430Y007841D01*
X011430Y008000D02*
X011098Y008000D01*
X011088Y008158D02*
X011430Y008158D01*
X011430Y008317D02*
X011005Y008317D01*
X011430Y008475D02*
X008600Y008475D01*
X008600Y008634D02*
X011430Y008634D01*
X011430Y008792D02*
X008532Y008792D01*
X008432Y009902D02*
X008420Y009902D01*
X004680Y007050D02*
X005180Y006050D01*
X004858Y005781D02*
X004502Y005781D01*
X004534Y005813D02*
X004598Y005967D01*
X004598Y006133D01*
X004534Y006287D01*
X004417Y006404D01*
X004263Y006468D01*
X004097Y006468D01*
X003943Y006404D01*
X003826Y006287D01*
X003797Y006217D01*
X002891Y005915D01*
X002763Y005968D01*
X002597Y005968D01*
X002443Y005904D01*
X002326Y005787D01*
X002262Y005633D01*
X002262Y005467D01*
X002326Y005313D01*
X002443Y005196D01*
X002597Y005132D01*
X002763Y005132D01*
X002917Y005196D01*
X003034Y005313D01*
X003063Y005383D01*
X003969Y005685D01*
X004097Y005632D01*
X004263Y005632D01*
X004417Y005696D01*
X004534Y005813D01*
X004587Y005939D02*
X004773Y005939D01*
X004762Y006098D02*
X004598Y006098D01*
X004547Y006256D02*
X004764Y006256D01*
X004685Y006415D02*
X004393Y006415D01*
X004605Y006573D02*
X002328Y006573D01*
X002565Y006732D02*
X004526Y006732D01*
X005152Y006732D02*
X010430Y006732D01*
X010430Y006890D02*
X006874Y006890D01*
X005547Y006256D02*
X010430Y006256D01*
X010430Y006098D02*
X005598Y006098D01*
X005587Y005939D02*
X010430Y005939D01*
X010430Y005781D02*
X005502Y005781D01*
X006344Y005305D02*
X003026Y005305D01*
X002798Y005147D02*
X006267Y005147D01*
X006131Y004988D02*
X000460Y004988D01*
X000460Y004830D02*
X005919Y004830D01*
X005708Y004671D02*
X000460Y004671D01*
X000460Y004513D02*
X000997Y004513D01*
X001081Y004547D02*
X000898Y004471D01*
X000759Y004332D01*
X000683Y004149D01*
X000683Y003951D01*
X000759Y003768D01*
X000898Y003629D01*
X001081Y003553D01*
X001279Y003553D01*
X001462Y003629D01*
X001601Y003768D01*
X001677Y003951D01*
X001677Y004149D01*
X001601Y004332D01*
X001462Y004471D01*
X001279Y004547D01*
X001081Y004547D01*
X001363Y004513D02*
X001997Y004513D01*
X002081Y004547D02*
X001898Y004471D01*
X001759Y004332D01*
X001683Y004149D01*
X001683Y003951D01*
X001759Y003768D01*
X001898Y003629D01*
X002081Y003553D01*
X002279Y003553D01*
X002462Y003629D01*
X002601Y003768D01*
X002677Y003951D01*
X002677Y004149D01*
X002601Y004332D01*
X002462Y004471D01*
X002279Y004547D01*
X002081Y004547D01*
X002363Y004513D02*
X005497Y004513D01*
X005285Y004354D02*
X002579Y004354D01*
X002658Y004196D02*
X005074Y004196D01*
X004863Y004037D02*
X002677Y004037D01*
X002647Y003879D02*
X004417Y003879D01*
X004298Y003720D02*
X002553Y003720D01*
X002300Y003562D02*
X004262Y003562D01*
X004288Y003403D02*
X000460Y003403D01*
X000460Y003245D02*
X004394Y003245D01*
X004680Y003550D02*
X006680Y005050D01*
X007016Y005305D02*
X010430Y005305D01*
X010430Y005147D02*
X007093Y005147D01*
X007098Y004988D02*
X010430Y004988D01*
X010430Y004830D02*
X007041Y004830D01*
X006858Y004671D02*
X010430Y004671D01*
X010430Y004513D02*
X006430Y004513D01*
X006219Y004354D02*
X010430Y004354D01*
X010430Y004196D02*
X006007Y004196D01*
X005796Y004037D02*
X010430Y004037D01*
X010430Y003879D02*
X005585Y003879D01*
X005373Y003720D02*
X010430Y003720D01*
X010430Y003562D02*
X005162Y003562D01*
X004700Y002294D02*
X004660Y002294D01*
X004660Y002135D02*
X004700Y002135D01*
X004700Y001977D02*
X004660Y001977D01*
X004660Y001818D02*
X004700Y001818D01*
X004700Y001660D02*
X004660Y001660D01*
X004255Y002135D02*
X004133Y002135D01*
X003992Y002294D02*
X004412Y002294D01*
X002060Y003562D02*
X001300Y003562D01*
X001060Y003562D02*
X000460Y003562D01*
X000460Y003720D02*
X000807Y003720D01*
X000713Y003879D02*
X000460Y003879D01*
X000460Y004037D02*
X000683Y004037D01*
X000702Y004196D02*
X000460Y004196D01*
X000460Y004354D02*
X000781Y004354D01*
X001579Y004354D02*
X001781Y004354D01*
X001702Y004196D02*
X001658Y004196D01*
X001677Y004037D02*
X001683Y004037D01*
X001713Y003879D02*
X001647Y003879D01*
X001553Y003720D02*
X001807Y003720D01*
X002562Y005147D02*
X000460Y005147D01*
X000460Y005305D02*
X002334Y005305D01*
X002263Y005464D02*
X000460Y005464D01*
X000460Y005622D02*
X002262Y005622D01*
X002323Y005781D02*
X000460Y005781D01*
X000460Y005939D02*
X002527Y005939D01*
X002833Y005939D02*
X002962Y005939D01*
X002680Y005550D02*
X004180Y006050D01*
X003813Y006256D02*
X000460Y006256D01*
X000460Y006098D02*
X003437Y006098D01*
X003967Y006415D02*
X000460Y006415D01*
X000460Y006573D02*
X001032Y006573D01*
X001328Y006573D02*
X002032Y006573D01*
X001795Y006732D02*
X001565Y006732D01*
X001652Y006890D02*
X001708Y006890D01*
X001683Y007049D02*
X001677Y007049D01*
X001653Y007207D02*
X001707Y007207D01*
X001792Y007366D02*
X001568Y007366D01*
X001508Y007524D02*
X002025Y007524D01*
X001276Y008000D02*
X000460Y008000D01*
X000460Y008158D02*
X001434Y008158D01*
X001117Y007841D02*
X000460Y007841D01*
X000460Y007683D02*
X000964Y007683D01*
X000930Y007524D02*
X000460Y007524D01*
X000460Y007366D02*
X000792Y007366D01*
X000707Y007207D02*
X000460Y007207D01*
X000460Y007049D02*
X000683Y007049D01*
X000708Y006890D02*
X000460Y006890D01*
X000460Y006732D02*
X000795Y006732D01*
X003306Y005464D02*
X006586Y005464D01*
X006774Y005464D02*
X010430Y005464D01*
X010430Y005622D02*
X003781Y005622D01*
X005232Y006573D02*
X010430Y006573D01*
X010430Y006415D02*
X005393Y006415D01*
X009830Y001660D02*
X009835Y001660D01*
X005685Y013706D02*
X019900Y013706D01*
D14*
X016680Y008050D02*
X016180Y007550D01*
X011680Y007550D01*
X011680Y012550D01*
X010180Y013050D01*
X004680Y012050D02*
X004680Y010050D01*
X005180Y008550D02*
X005180Y008050D01*
X001680Y008050D01*
X001180Y007550D01*
X001180Y007050D01*
X002180Y007050D02*
X004680Y007050D01*
X006680Y007050D01*
X008180Y008550D01*
X010680Y007550D02*
X011680Y007550D01*
X010680Y007550D02*
X010680Y001550D01*
X012680Y004050D02*
X017680Y004050D01*
X018680Y005050D01*
D15*
X008180Y008550D03*
X005180Y008550D03*
X004680Y010050D03*
X004680Y012050D03*
D16*
X007680Y012550D03*
X009180Y012550D03*
X009680Y012050D03*
X010180Y013050D03*
X011180Y012050D03*
X010180Y010050D03*
X008180Y009550D03*
X010680Y008050D03*
X013680Y008050D03*
X013680Y009550D03*
X006680Y005050D03*
X005180Y006050D03*
X004180Y006050D03*
X002680Y005550D03*
X004680Y003550D03*
X008180Y003050D03*
X009680Y002050D03*
X012680Y004050D03*
X013680Y003050D03*
X014680Y001050D03*
X004180Y008550D03*
M02*
