G75*
%MOIN*%
%OFA0B0*%
%FSLAX24Y24*%
%IPPOS*%
%LPD*%
%AMOC8*
5,1,8,0,0,1.08239X$1,22.5*
%
%ADD10R,0.0316X0.0946*%
%ADD11OC8,0.0710*%
%ADD12R,0.0474X0.0513*%
%ADD13R,0.0513X0.0474*%
%ADD14C,0.0674*%
%ADD15R,0.0671X0.0710*%
%ADD16R,0.0552X0.0552*%
%ADD17C,0.0720*%
%ADD18R,0.0592X0.0671*%
%ADD19C,0.0520*%
%ADD20C,0.0516*%
D10*
X003930Y005026D03*
X004430Y005026D03*
X004930Y005026D03*
X005430Y005026D03*
X005430Y007074D03*
X004930Y007074D03*
X004430Y007074D03*
X003930Y007074D03*
X010930Y007074D03*
X011430Y007074D03*
X011930Y007074D03*
X012430Y007074D03*
X012430Y005026D03*
X011930Y005026D03*
X011430Y005026D03*
X010930Y005026D03*
X010930Y011026D03*
X011430Y011026D03*
X011930Y011026D03*
X012430Y011026D03*
X012430Y013074D03*
X011930Y013074D03*
X011430Y013074D03*
X010930Y013074D03*
D11*
X015680Y008050D03*
X016680Y008050D03*
X017680Y008050D03*
X018680Y008050D03*
X018680Y005050D03*
X017680Y005050D03*
X016680Y005050D03*
X015680Y005050D03*
D12*
X012015Y009050D03*
X011345Y009050D03*
X009180Y008715D03*
X009180Y009385D03*
X007515Y009550D03*
X006845Y009550D03*
X006015Y009550D03*
X005345Y009550D03*
X004015Y009550D03*
X003345Y009550D03*
X003845Y011050D03*
X004515Y011050D03*
X005345Y011050D03*
X006015Y011050D03*
X006345Y013050D03*
X007015Y013050D03*
X006845Y008050D03*
X007515Y008050D03*
X007515Y006050D03*
X006845Y006050D03*
X016345Y009550D03*
X017015Y009550D03*
X017845Y009550D03*
X018515Y009550D03*
D13*
X015680Y003885D03*
X015680Y003215D03*
X009180Y005215D03*
X009180Y005885D03*
X009180Y007215D03*
X009180Y007885D03*
X008845Y013550D03*
X009515Y013550D03*
D14*
X002180Y007050D03*
X001180Y007050D03*
X001180Y004050D03*
X002180Y004050D03*
D15*
X008680Y010459D03*
D16*
X008286Y011769D03*
X009074Y011769D03*
D17*
X003680Y001870D02*
X003680Y001230D01*
X004680Y001230D02*
X004680Y001870D01*
X010680Y001870D02*
X010680Y001230D01*
X011680Y001230D02*
X011680Y001870D01*
X012680Y001870D02*
X012680Y001230D01*
X015680Y001230D02*
X015680Y001870D01*
X016680Y001870D02*
X016680Y001230D01*
X017680Y001230D02*
X017680Y001870D01*
D18*
X014515Y002050D03*
X013845Y002050D03*
X009515Y003050D03*
X008845Y003050D03*
D19*
X008180Y008550D03*
X005180Y008550D03*
X004680Y010050D03*
X004680Y012050D03*
D20*
X007680Y012550D03*
X009180Y012550D03*
X009680Y012050D03*
X010180Y013050D03*
X011180Y012050D03*
X010180Y010050D03*
X008180Y009550D03*
X010680Y008050D03*
X013680Y008050D03*
X013680Y009550D03*
X006680Y005050D03*
X005180Y006050D03*
X004180Y006050D03*
X002680Y005550D03*
X004680Y003550D03*
X008180Y003050D03*
X009680Y002050D03*
X012680Y004050D03*
X013680Y003050D03*
X014680Y001050D03*
X004180Y008550D03*
M02*
