G75*
%MOIN*%
%OFA0B0*%
%FSLAX24Y24*%
%IPPOS*%
%LPD*%
%AMOC8*
5,1,8,0,0,1.08239X$1,22.5*
%
%ADD10OC8,0.0710*%
%ADD11C,0.0674*%
%ADD12C,0.0720*%
%ADD13C,0.0520*%
%ADD14C,0.0516*%
D10*
X015680Y005050D03*
X016680Y005050D03*
X017680Y005050D03*
X018680Y005050D03*
X018680Y008050D03*
X017680Y008050D03*
X016680Y008050D03*
X015680Y008050D03*
D11*
X002180Y007050D03*
X001180Y007050D03*
X001180Y004050D03*
X002180Y004050D03*
D12*
X003680Y001870D02*
X003680Y001230D01*
X004680Y001230D02*
X004680Y001870D01*
X010680Y001870D02*
X010680Y001230D01*
X011680Y001230D02*
X011680Y001870D01*
X012680Y001870D02*
X012680Y001230D01*
X015680Y001230D02*
X015680Y001870D01*
X016680Y001870D02*
X016680Y001230D01*
X017680Y001230D02*
X017680Y001870D01*
D13*
X008180Y008550D03*
X005180Y008550D03*
X004680Y010050D03*
X004680Y012050D03*
D14*
X007680Y012550D03*
X009180Y012550D03*
X009680Y012050D03*
X010180Y013050D03*
X011180Y012050D03*
X010180Y010050D03*
X008180Y009550D03*
X010680Y008050D03*
X013680Y008050D03*
X013680Y009550D03*
X006680Y005050D03*
X005180Y006050D03*
X004180Y006050D03*
X002680Y005550D03*
X004680Y003550D03*
X008180Y003050D03*
X009680Y002050D03*
X012680Y004050D03*
X013680Y003050D03*
X014680Y001050D03*
X004180Y008550D03*
M02*
